<svg fill="grey" height="30" viewBox="100 0 40000 600" xmlns="http://www.w3.org/2000/svg">
 <g>
  <title>Layer 1</title>
  <g id="svg_35">
   <g id="svg_5">
    <g id="svg_7">
     <path id="svg_10" d="m611.93995,131.16539l-80.875,-81.512c-7.438,-7.495 -19.531,-7.54 -27.02,-0.108s-7.54,19.525 -0.108,27.014l67.471,68.006l-67.42,67.42c-7.464,7.457 -7.464,19.557 0,27.014c3.732,3.732 8.616,5.598 13.507,5.598s9.781,-1.866 13.513,-5.591l80.876,-80.876c7.443,-7.44 7.463,-19.495 0.056,-26.965z"/>
    </g>
   </g>
   <g id="svg_11">
    <g id="svg_12">
     <path id="svg_13" d="m599.00695,125.51039l-398.01,0c-10.552,0 -19.104,8.552 -19.104,19.104l0,147.741c0,10.552 8.552,19.104 19.104,19.104c10.552,0 19.104,-8.552 19.104,-19.104l0,-128.636l378.905,0c10.552,0 19.104,-8.552 19.104,-19.104c0.001,-10.552 -8.551,-19.105 -19.103,-19.105z"/>
    </g>
   </g>
   <g id="svg_14">
    <g id="svg_15">
     <path id="svg_16" d="m227.96595,455.43239l67.42,-67.413c7.457,-7.457 7.464,-19.55 0,-27.014c-7.463,-7.464 -19.563,-7.464 -27.02,0l-80.876,80.869c-7.444,7.438 -7.47,19.493 -0.057,26.963l80.876,81.512c3.738,3.764 8.654,5.649 13.564,5.649c4.865,0 9.731,-1.847 13.456,-5.54c7.489,-7.432 7.54,-19.525 0.108,-27.02l-67.471,-68.006z"/>
    </g>
   </g>
   <g id="svg_17">
    <g id="svg_18">
     <path id="svg_19" d="m598.36995,282.16739c-10.552,0 -19.104,8.552 -19.104,19.104l0,135.005l-378.269,0c-10.552,0 -19.104,8.552 -19.104,19.104c0,10.552 8.552,19.104 19.104,19.104l397.38,0c10.552,0 19.104,-8.552 19.098,-19.104l0,-154.108c-0.001,-10.552 -8.553,-19.105 -19.105,-19.105z"/>
    </g>
   </g>
   <g id="svg_20"/>
   <g id="svg_21"/>
   <g id="svg_22"/>
   <g id="svg_23"/>
   <g id="svg_24"/>
   <g id="svg_25"/>
   <g id="svg_26"/>
   <g id="svg_27"/>
   <g id="svg_28"/>
   <g id="svg_29"/>
   <g id="svg_30"/>
   <g id="svg_31"/>
   <g id="svg_32"/>
   <g id="svg_33"/>
   <g id="svg_34"/>
  </g>
  <g stroke="null" id="svg_83">
   <g stroke="null" id="svg_80">
    <path stroke="null" id="svg_82" d="m418.89439,256.35316c-4.9456,0 -9.86227,0.91777 -14.70201,2.72858l2.53789,-17.52454l58.71535,0l0,-48.5572l-90.33904,0l-17.60086,114.82233l32.78448,5.80126c1.37776,-1.40488 8.56341,-14.78401 22.00239,-14.78401c12.28937,0 19.05522,10.7033 19.05522,30.12932c0,20.29556 -6.79477,32.41117 -18.17386,32.41117c-18.33297,0 -18.02954,-27.0352 -18.50129,-28.27606l-40.67265,5.14972c0.52237,1.27053 2.15984,65.74628 58.84125,65.74628c39.07825,0 60.16576,-39.00368 60.16576,-75.70696c-0.00033,-47.23144 -27.22249,-71.93987 -54.11263,-71.93987z"/>
   </g>
  </g>
 </g>

</svg>