<svg fill="grey" height="30" viewBox="100 0 40000 600" xmlns="http://www.w3.org/2000/svg">
 <g>
  <title>Layer 1</title>
  <g id="svg_35">
   <g id="svg_5">
    <g id="svg_7">
     <path id="svg_10" d="m611.93995,131.16539l-80.875,-81.512c-7.438,-7.495 -19.531,-7.54 -27.02,-0.108s-7.54,19.525 -0.108,27.014l67.471,68.006l-67.42,67.42c-7.464,7.457 -7.464,19.557 0,27.014c3.732,3.732 8.616,5.598 13.507,5.598s9.781,-1.866 13.513,-5.591l80.876,-80.876c7.443,-7.44 7.463,-19.495 0.056,-26.965z"/>
    </g>
   </g>
   <g id="svg_11">
    <g id="svg_12">
     <path id="svg_13" d="m599.00695,125.51039l-398.01,0c-10.552,0 -19.104,8.552 -19.104,19.104l0,147.741c0,10.552 8.552,19.104 19.104,19.104c10.552,0 19.104,-8.552 19.104,-19.104l0,-128.636l378.905,0c10.552,0 19.104,-8.552 19.104,-19.104c0.001,-10.552 -8.551,-19.105 -19.103,-19.105z"/>
    </g>
   </g>
   <g id="svg_14">
    <g id="svg_15">
     <path id="svg_16" d="m227.96595,455.43239l67.42,-67.413c7.457,-7.457 7.464,-19.55 0,-27.014c-7.463,-7.464 -19.563,-7.464 -27.02,0l-80.876,80.869c-7.444,7.438 -7.47,19.493 -0.057,26.963l80.876,81.512c3.738,3.764 8.654,5.649 13.564,5.649c4.865,0 9.731,-1.847 13.456,-5.54c7.489,-7.432 7.54,-19.525 0.108,-27.02l-67.471,-68.006z"/>
    </g>
   </g>
   <g id="svg_17">
    <g id="svg_18">
     <path id="svg_19" d="m598.36995,282.16739c-10.552,0 -19.104,8.552 -19.104,19.104l0,135.005l-378.269,0c-10.552,0 -19.104,8.552 -19.104,19.104c0,10.552 8.552,19.104 19.104,19.104l397.38,0c10.552,0 19.104,-8.552 19.098,-19.104l0,-154.108c-0.001,-10.552 -8.553,-19.105 -19.105,-19.105z"/>
    </g>
   </g>
   <g id="svg_20"/>
   <g id="svg_21"/>
   <g id="svg_22"/>
   <g id="svg_23"/>
   <g id="svg_24"/>
   <g id="svg_25"/>
   <g id="svg_26"/>
   <g id="svg_27"/>
   <g id="svg_28"/>
   <g id="svg_29"/>
   <g id="svg_30"/>
   <g id="svg_31"/>
   <g id="svg_32"/>
   <g id="svg_33"/>
   <g id="svg_34"/>
  </g>
  <g stroke="null" id="svg_67">
   <g stroke="null" id="svg_64">
    <path stroke="null" id="svg_66" d="m475.758,254.58571c0,-30.65286 -17.77375,-61.58571 -57.48197,-61.58571c-35.44384,0 -56.16563,22.27972 -59.93256,64.43167l-0.56208,6.28308l41.84815,5.03961l0.34499,-6.42287c1.19315,-22.24311 9.52031,-25.24133 17.51223,-25.24133c10.86626,0 16.37327,6.80102 16.37327,20.21378c0,39.24275 -72.73479,69.2146 -79.2394,141.76731l-0.62064,6.92874l121.758,0l0,-48.71834l-57.82224,0c18.31126,-25.0067 57.82224,-52.44584 57.82224,-102.69595z"/>
   </g>
  </g>
 </g>

</svg>