<svg fill="grey" height="30" viewBox="100 0 40000 600" xmlns="http://www.w3.org/2000/svg">
 <g>
  <title>Layer 1</title>
  <g id="svg_35">
   <g id="svg_5">
    <g id="svg_7">
     <path id="svg_10" d="m611.93995,131.16539l-80.875,-81.512c-7.438,-7.495 -19.531,-7.54 -27.02,-0.108s-7.54,19.525 -0.108,27.014l67.471,68.006l-67.42,67.42c-7.464,7.457 -7.464,19.557 0,27.014c3.732,3.732 8.616,5.598 13.507,5.598s9.781,-1.866 13.513,-5.591l80.876,-80.876c7.443,-7.44 7.463,-19.495 0.056,-26.965z"/>
    </g>
   </g>
   <g id="svg_11">
    <g id="svg_12">
     <path id="svg_13" d="m599.00695,125.51039l-398.01,0c-10.552,0 -19.104,8.552 -19.104,19.104l0,147.741c0,10.552 8.552,19.104 19.104,19.104c10.552,0 19.104,-8.552 19.104,-19.104l0,-128.636l378.905,0c10.552,0 19.104,-8.552 19.104,-19.104c0.001,-10.552 -8.551,-19.105 -19.103,-19.105z"/>
    </g>
   </g>
   <g id="svg_14">
    <g id="svg_15">
     <path id="svg_16" d="m227.96595,455.43239l67.42,-67.413c7.457,-7.457 7.464,-19.55 0,-27.014c-7.463,-7.464 -19.563,-7.464 -27.02,0l-80.876,80.869c-7.444,7.438 -7.47,19.493 -0.057,26.963l80.876,81.512c3.738,3.764 8.654,5.649 13.564,5.649c4.865,0 9.731,-1.847 13.456,-5.54c7.489,-7.432 7.54,-19.525 0.108,-27.02l-67.471,-68.006z"/>
    </g>
   </g>
   <g id="svg_17">
    <g id="svg_18">
     <path id="svg_19" d="m598.36995,282.16739c-10.552,0 -19.104,8.552 -19.104,19.104l0,135.005l-378.269,0c-10.552,0 -19.104,8.552 -19.104,19.104c0,10.552 8.552,19.104 19.104,19.104l397.38,0c10.552,0 19.104,-8.552 19.098,-19.104l0,-154.108c-0.001,-10.552 -8.553,-19.105 -19.105,-19.105z"/>
    </g>
   </g>
   <g id="svg_20"/>
   <g id="svg_21"/>
   <g id="svg_22"/>
   <g id="svg_23"/>
   <g id="svg_24"/>
   <g id="svg_25"/>
   <g id="svg_26"/>
   <g id="svg_27"/>
   <g id="svg_28"/>
   <g id="svg_29"/>
   <g id="svg_30"/>
   <g id="svg_31"/>
   <g id="svg_32"/>
   <g id="svg_33"/>
   <g id="svg_34"/>
  </g>
  <g stroke="null" id="svg_59">
   <g stroke="null" id="svg_56">
    <path stroke="null" id="svg_58" d="m398.93873,270.86065c2.32231,-21.00921 7.42237,-34.20106 19.95948,-34.20106c5.47521,0 11.95663,1.86791 13.45825,16.44219l0.62047,6.04679l41.79062,-5.3433l-0.95598,-6.55641c-4.97945,-34.21229 -24.28328,-54.24885 -52.95628,-54.24885c-43.11218,0 -66.85528,38.58961 -66.85528,107.90114c0,67.50394 22.59715,105.09886 63.632,105.09886c34.95421,0 59.368,-30.2381 59.368,-72.9421c-0.00513,-60.94171 -50.27898,-83.52803 -78.06127,-62.19725zm18.69327,31.9812c11.25108,0 17.44687,10.87465 17.44687,30.61625c0,13.05207 -2.74768,28.6148 -15.83557,28.6148c-9.01385,0 -18.71343,-10.00143 -18.71343,-31.95083c0.00068,-17.07869 6.3919,-27.28022 17.10213,-27.28022z"/>
   </g>
  </g>
 </g>

</svg>