<svg width="512" height="512" xmlns="http://www.w3.org/2000/svg" xml:space="preserve" version="1.1">

 <g>
  <title>Layer 1</title>
  <g id="svg_1">
   <g id="svg_2">
    <path fill="#FFFA8D" id="svg_3" d="m378.795,368.439c3.544,-11.882 5.385,-24.296 5.385,-36.744c0,-70.679 -57.501,-128.18 -128.18,-128.18s-128.18,57.501 -128.18,128.18c0,12.449 1.841,24.862 5.385,36.744l-133.205,0l0,30l512,0l0,-30l-133.205,0z"/>
   </g>
  </g>
  <g id="svg_4">
   <g id="svg_5">
    <rect id="svg_6" height="60" width="30" y="113.561" x="241"/>
   </g>
  </g>
  <g id="svg_7">
   <g id="svg_8">
    <rect id="svg_9" height="30" width="60" transform="matrix(0.5004 -0.8658 0.8658 0.5004 28.7601 387.4676)" y="153.814" x="320.115"/>
   </g>
  </g>
  <g id="svg_10">
   <g id="svg_11">
    <rect id="svg_12" height="29.999" width="59.997" transform="matrix(0.8664 -0.4993 0.4993 0.8664 -62.7407 240.9592)" y="222.742" x="388.982"/>
   </g>
  </g>
  <g id="svg_13">
   <g id="svg_14">
    <rect id="svg_15" height="60" width="30" transform="matrix(0.0012 -1 1 0.0012 111.6969 775.6281)" y="301.899" x="429.128"/>
   </g>
  </g>
  <g id="svg_16">
   <g id="svg_17">
    <rect id="svg_18" height="59.997" width="29.999" transform="matrix(0.8658 -0.5003 0.5003 0.8658 -62.8524 103.1986)" y="138.797" x="146.002"/>
   </g>
  </g>
  <g id="svg_19">
   <g id="svg_20">
    <rect id="svg_21" height="59.998" width="29.998" transform="matrix(0.4993 -0.8664 0.8664 0.4993 -159.8577 198.8621)" y="207.746" x="77.134"/>
   </g>
  </g>
  <g id="svg_22">
   <g id="svg_23">
    <rect id="svg_24" height="30" width="60" transform="matrix(1 -0.0012 0.0012 1 -0.3984 0.0807)" y="316.92" x="37"/>
   </g>
  </g>
  <g id="svg_25"/>
  <g id="svg_26"/>
  <g id="svg_27"/>
  <g id="svg_28"/>
  <g id="svg_29"/>
  <g id="svg_30"/>
  <g id="svg_31"/>
  <g id="svg_32"/>
  <g id="svg_33"/>
  <g id="svg_34"/>
  <g id="svg_35"/>
  <g id="svg_36"/>
  <g id="svg_37"/>
  <g id="svg_38"/>
  <g id="svg_39"/>
  <rect stroke="#000" stroke-width="0" id="svg_42" height="49" width="516" y="367.33333" x="0" fill="#fff"/>
  <rect id="svg_43" height="1" width="0" y="418.33333" x="421" stroke="#000" fill="#fff"/>
 </g>
</svg>