<svg id="Layer_1" height="30" viewBox="-20 -10 180 180" width="30" xmlns="http://www.w3.org/2000/svg" data-name="Layer 1"><path d="m87.944 121.227a1 1 0 0 1 -.707-.293l-58.17-58.171a1 1 0 0 1 .327-1.632l23.968-9.846a1 1 0 0 1 1.087.218l44.051 44.048a1 1 0 0 1 .218 1.087l-9.846 23.969a1 1 0 0 1 -.728.6 1.013 1.013 0 0 1 -.2.02zm-56.401-58.817 56.047 56.048 9.022-21.958-43.106-43.112z"/><path d="m124.583 63.621a1 1 0 0 1 -.707-.293l-37.2-37.2a1 1 0 0 1 -.279-.877l2.49-14.418a1 1 0 0 1 1.692-.537l49.131 49.131a1 1 0 0 1 -.537 1.692l-14.417 2.49a.976.976 0 0 1 -.173.012zm-36.13-38.544 36.471 36.47 12-2.073-46.4-46.4z"/><path d="m88.781 88.249a.993.993 0 0 1 -.707-.293l-26.03-26.03a1 1 0 0 1 0-1.414l30.216-30.212a1 1 0 0 1 1.414 0l26.03 26.03a1 1 0 0 1 0 1.414l-30.216 30.212a.993.993 0 0 1 -.707.293zm-24.616-27.03 24.616 24.616 28.8-28.8-24.614-24.617z"/><path d="m19.628 140h-8.618a1 1 0 0 1 -1-1l-.01-8.626a1 1 0 0 1 .293-.708l43.546-43.545a1.029 1.029 0 0 1 1.414 0l8.627 8.627a1 1 0 0 1 0 1.414l-43.545 43.545a1 1 0 0 1 -.707.293zm-7.619-2h7.2l42.55-42.545-7.213-7.213-42.546 42.544z"/></svg>